<?xml version="1.0" encoding="UTF-8"?>
<svg version="1.1" xmlns="http://www.w3.org/2000/svg" width="2000" height="2000">

<path d="M0 0 C3.7719061 -0.00471924 7.54379796 -0.01503989 11.31569441 -0.02457008 C18.77929097 -0.0425179 26.2428878 -0.05515036 33.70649762 -0.06603859 C39.91355642 -0.07524143 46.12060758 -0.08673756 52.32765969 -0.09966966 C53.67504787 -0.10247339 53.67504787 -0.10247339 55.04965602 -0.10533376 C56.88196628 -0.10915111 58.71427654 -0.11296992 60.54658679 -0.11679015 C85.23488043 -0.16776135 109.92319282 -0.20366682 134.61151703 -0.23598406 C135.6226338 -0.23730807 136.63375057 -0.23863208 137.67550724 -0.23999622 C177.73956183 -0.2922138 217.80362682 -0.33652071 257.86770339 -0.36779018 C267.77889016 -0.3755422 277.69007669 -0.38358968 287.60126313 -0.39174577 C288.69634387 -0.39263972 289.79142461 -0.39353366 290.91968961 -0.3944547 C326.44683217 -0.42367858 361.9738291 -0.48470471 397.5008945 -0.56312962 C434.05129451 -0.64366634 470.60161585 -0.69489859 507.15210533 -0.70824848 C512.3146065 -0.71014142 517.4771075 -0.71235463 522.63960847 -0.71475527 C523.6555676 -0.71521557 524.67152673 -0.71567588 525.7182725 -0.71615013 C542.05707731 -0.72438406 558.39567221 -0.76320903 574.73439608 -0.81337107 C591.15501393 -0.86308964 607.57540554 -0.8797788 623.99609228 -0.86294715 C633.74675427 -0.85393566 643.49662195 -0.86989868 653.24715316 -0.92196265 C659.76648902 -0.9542851 666.28529467 -0.95367676 672.80465333 -0.92673204 C676.51525164 -0.9123224 680.22434367 -0.91178974 683.93479063 -0.95154898 C700.08884593 -1.11440546 712.11147304 -0.55173352 725.39276703 9.17807844 C727.77503518 10.5694129 730.1967873 11.8395768 732.64276703 13.11948469 C733.76425141 13.72212141 734.88573578 14.32475813 736.04120453 14.94565657 C737.70022797 15.8341429 737.70022797 15.8341429 739.39276703 16.74057844 C740.57253236 17.37389703 741.75221995 18.00736044 742.93182953 18.64096907 C745.75138943 20.15474918 748.57169752 21.66711413 751.39276703 23.17807844 C751.39276703 23.50807844 751.39276703 23.83807844 751.39276703 24.17807844 C750.3527353 24.24801009 749.31270356 24.31794173 748.24115571 24.38999251 C700.49070143 27.64292839 654.7345365 34.79187692 611.39276703 56.17807844 C609.99329149 56.85180426 608.59355562 57.52498963 607.19354828 58.19760969 C603.2243394 60.12435948 599.29894748 62.12681043 595.39276703 64.17807844 C594.76515473 64.50711165 594.13754243 64.83614485 593.49091157 65.17514876 C576.89541708 73.97224826 561.15998711 84.58660462 546.39276703 96.17807844 C545.58452485 96.80585188 544.77628266 97.43362532 543.94354828 98.08042219 C528.84504276 109.96958355 514.63340032 122.87858634 501.01776703 136.42807844 C500.36372895 137.07744368 499.70969086 137.72680891 499.03583344 138.39585188 C495.18018471 142.26427091 491.51573887 146.24888467 487.94696625 150.38315657 C486.05724475 152.5655682 484.10140578 154.682505 482.14276703 156.80307844 C477.10827637 162.38941041 472.51311231 168.26975412 467.92011078 174.21811751 C466.34592525 176.23818808 464.74722546 178.23667553 463.14276703 180.23276594 C453.44306367 192.37446963 444.83563287 205.13927986 436.39276703 218.17807844 C435.83814789 219.03079329 435.28352875 219.88350813 434.71210297 220.76206282 C422.07186338 240.25072943 410.96500605 260.50627876 400.39276703 281.17807844 C400.02731782 281.88706282 399.6618686 282.59604719 399.28534516 283.32651594 C390.25560469 300.85794189 382.05586299 318.79418705 374.76776703 337.11557844 C352.00627187 393.97869983 305.17924981 431.37214797 249.81732758 455.43296126 C232.06573967 462.9971409 214.11053227 469.46809952 195.39276703 474.17807844 C194.45787446 474.41381575 193.52298188 474.64955305 192.55975922 474.89243391 C144.4130973 486.86289968 96.84445725 489.97979875 47.39276703 489.17807844 C47.8811521 486.2258305 48.37458825 483.27671973 48.91693696 480.33384016 C50.64404452 470.01020707 50.73116537 459.7923682 50.70844086 449.34751204 C50.70527989 446.31540788 50.72882453 443.28428163 50.75409516 440.25229719 C50.79139989 428.85183316 50.09555904 418.27778891 47.39276703 407.17807844 C47.10260712 405.9543553 47.10260712 405.9543553 46.80658539 404.70591048 C44.11559652 394.19751667 39.62445053 384.63286582 34.39276703 375.17807844 C33.8371811 374.16745344 33.28159516 373.15682844 32.70917328 372.11557844 C22.2090472 354.38874687 4.76807997 342.82686627 -14.97442047 337.72104719 C-31.82568284 334.24578685 -50.30448808 334.58004226 -66.60723297 340.17807844 C-67.85633453 340.57897688 -69.10543609 340.97987532 -70.39238922 341.39292219 C-108.14841979 354.10028429 -142.65167162 382.7650467 -166.60723297 414.17807844 C-167.07757965 414.79328352 -167.54792632 415.4084886 -168.03252593 416.04233626 C-170.5768751 419.37831452 -173.10643048 422.72529527 -175.61504547 426.08823469 C-176.10601715 426.73083235 -176.59698882 427.37343001 -177.10283843 428.03550032 C-178.69081614 430.2088818 -178.69081614 430.2088818 -180.05303375 432.85190657 C-182.37105717 436.89240524 -183.96429148 439.66464215 -188.54229156 441.09531477 C-192.13166721 441.47651284 -195.62288015 441.56313757 -199.23223297 441.55307844 C-201.85626242 441.6413785 -204.47999157 441.73908822 -207.10332672 441.84604719 C-209.02894439 441.91444807 -209.02894439 441.91444807 -210.99346343 441.98423079 C-287.23723903 446.07405364 -362.57459383 497.69196525 -418.54082672 545.58042219 C-421.26494283 547.90460586 -424.05393289 550.13731428 -426.85723297 552.36557844 C-432.58133007 557.01693115 -437.90734391 562.06666901 -443.24297515 567.15537337 C-446.79463435 570.54210397 -450.37766639 573.86760998 -454.06035797 577.11167219 C-461.13624062 583.45134763 -467.79687253 590.21861943 -474.5034732 596.94394759 C-476.79670045 599.24255054 -479.09524536 601.53573875 -481.39434234 603.82846907 C-482.87578297 605.31057032 -484.35691347 606.79298164 -485.83770172 608.27573469 C-486.51391067 608.94991942 -487.19011962 609.62410414 -487.88681976 610.3187187 C-491.74974495 614.20043778 -495.43833464 618.18258667 -499.00733367 622.33663252 C-501.78452613 625.53311479 -504.70346956 628.59697677 -507.60723297 631.67807844 C-514.68903201 639.23508519 -521.46814618 646.98998919 -528.13921539 654.91123274 C-531.20908398 658.54973003 -534.32089384 662.14793091 -537.45708648 665.72934798 C-542.70618028 671.72942176 -547.774833 677.82069775 -552.65630523 684.12363509 C-555.53804408 687.84026533 -558.50328071 691.4643585 -561.54473297 695.05307844 C-566.41563107 700.85359591 -570.9431212 706.87640824 -575.45879547 712.95542219 C-578.69615527 717.31153064 -581.9911251 721.6221062 -585.29473297 725.92807844 C-594.11945738 737.45327205 -602.72412242 749.08847242 -611.05889312 760.97251204 C-613.07114742 763.83891149 -615.0908003 766.70004306 -617.1116275 769.56040266 C-618.11743356 770.98455575 -619.12230089 772.40937224 -620.12627593 773.83481673 C-622.49857046 777.2018705 -624.87904856 780.56182682 -627.29082672 783.90073469 C-642.95663621 805.68257079 -657.35430919 828.45634237 -671.60723297 851.17807844 C-672.41765045 852.46899397 -672.41765045 852.46899397 -673.24444 853.7859886 C-681.00500254 866.17299613 -688.53574098 878.68602948 -695.92168609 891.29966048 C-697.67326309 894.29083846 -699.42933131 897.27935468 -701.18535797 900.26792219 C-708.15466069 912.15098279 -714.9870143 924.09694208 -721.60723297 936.17807844 C-721.93723297 936.17807844 -722.26723297 936.17807844 -722.60723297 936.17807844 C-722.89542216 891.01471494 -722.1471572 846.26988592 -718.12668792 801.25690535 C-717.65004636 795.84713595 -717.28002101 790.43528695 -716.94072906 785.01548079 C-715.00517575 754.61324182 -711.12828359 724.39811938 -706.48223297 694.30307844 C-706.31237884 693.20060774 -706.14252471 692.09813704 -705.96752349 690.96225813 C-704.27463856 680.03815081 -702.52676521 669.1468037 -700.23101226 658.33139876 C-699.33018889 653.77756916 -698.72256983 649.19528703 -698.13457672 644.59214094 C-697.62617863 641.30073411 -696.95798433 638.10125133 -696.21636382 634.85678938 C-695.49712805 631.6938816 -694.81161442 628.52439064 -694.12676422 625.35385969 C-686.30668128 589.27767177 -678.25167814 553.24810114 -666.60723297 518.17807844 C-665.86099923 515.90208267 -665.11491846 513.62603674 -664.36895172 511.34995344 C-649.82668374 467.17921747 -649.82668374 467.17921747 -641.49444 447.29868391 C-640.82917113 445.70855586 -640.16964109 444.11602479 -639.51299468 442.52231673 C-622.93036732 402.28807941 -603.53616565 363.72916685 -581.23223297 326.36557844 C-580.66420959 325.41119887 -580.66420959 325.41119887 -580.08471099 324.43753889 C-576.04154128 317.65510026 -571.90577587 310.99445688 -567.3093814 304.56699446 C-565.51945907 302.05489032 -563.78729217 299.50991571 -562.06426422 296.95151594 C-552.13098334 282.22774536 -541.79836698 267.97180176 -530.60723297 254.17807844 C-529.33618879 252.57407883 -528.06536147 250.96990736 -526.79473297 249.36557844 C-519.05022357 239.69253436 -510.96585216 230.32471561 -502.60723297 221.17807844 C-501.68781906 220.16518746 -500.76855518 219.15216029 -499.84942047 218.13901594 C-494.89284069 212.68863839 -489.87408157 207.331526 -484.60723297 202.17807844 C-481.47440406 199.05683116 -478.35829864 195.91932649 -475.24395172 192.77964094 C-473.59427781 191.12072147 -471.94453639 189.46186912 -470.29473297 187.80307844 C-469.47811187 186.97807844 -468.66149078 186.15307844 -467.82012359 185.30307844 C-462.91435247 180.37776242 -457.88196114 175.70308028 -452.60723297 171.17807844 C-450.99954924 169.72362327 -449.39483582 168.2658695 -447.79473297 166.80307844 C-442.54547414 162.07236342 -437.11164301 157.60724151 -431.60723297 153.17807844 C-430.48587995 152.26433403 -429.36479785 151.35025705 -428.24395172 150.43589094 C-406.49762693 132.77387111 -383.47393452 116.83090199 -359.60723297 102.17807844 C-358.40550445 101.43702864 -358.40550445 101.43702864 -357.17949859 100.68100813 C-316.06756088 75.46286077 -271.95784891 54.34414341 -225.99785797 39.61557844 C-223.24167367 38.72995945 -220.52778082 37.78770591 -217.82598297 36.74839094 C-162.789998 15.81462458 -102.05138917 6.01640467 -43.60723297 1.17807844 C-42.57572349 1.08935772 -41.544214 1.00063699 -40.48144666 0.90922776 C-27.00382384 -0.09284337 -13.50698727 0.01311095 0 0 Z " fill="#0A0A0A" transform="translate(1095.607232965529,400.8219215553254)"/>
<path d="M0 0 C-9.5851107 51.07014247 -33.98777561 102.94107356 -54.0279541 150.68414307 C-54.97822149 152.94811364 -55.9261941 155.21303521 -56.87402344 157.47802734 C-63.93653469 174.32755411 -71.29513956 191.03039902 -78.9375 207.625 C-79.31179138 208.43981842 -79.68608276 209.25463684 -80.07171631 210.09414673 C-84.09910823 218.84696981 -88.22509049 227.52747935 -92.62890625 236.09765625 C-93.37227832 237.56210781 -94.11520604 239.02678503 -94.85766602 240.49169922 C-96.22022135 243.17915856 -97.62063873 245.84057811 -99.05053711 248.49267578 C-104.39760477 258.7684419 -105.41588543 268.53858389 -106 280 C-106.09569545 281.50346268 -106.1932837 283.00680634 -106.29296875 284.51000977 C-106.58556078 289.15024725 -106.79955484 293.79247994 -107 298.4375 C-107.03913513 299.32270325 -107.07827026 300.20790649 -107.11859131 301.11993408 C-107.43782698 308.41234037 -107.72285691 315.70588719 -108 323 C-108.04596313 324.19212097 -108.09192627 325.38424194 -108.13928223 326.61248779 C-111.27971981 408.74793749 -112.64736012 491.73607635 -105.53305054 573.69606018 C-105.00912575 579.75241109 -104.58531559 585.81189868 -104.17993164 591.87744141 C-103.50732458 601.9279385 -102.70555883 611.89751284 -101.29736328 621.875 C-100.67108247 626.35049114 -100.08840582 630.83190137 -99.5 635.3125 C-99.36988525 636.29903564 -99.23977051 637.28557129 -99.10571289 638.30200195 C-98.3156606 644.36073106 -97.61232062 650.42090165 -97 656.5 C-96.27087826 663.70162191 -95.42280558 670.88307255 -94.5 678.0625 C-94.32210938 679.47208984 -94.32210938 679.47208984 -94.140625 680.91015625 C-93.45300283 686.17196067 -92.55505756 691.33709602 -91.47753906 696.53198242 C-90.67026862 700.70411786 -90.16062073 704.91093085 -89.625 709.125 C-88.53298866 717.39911343 -87.30150549 725.64129741 -85.9375 733.875 C-85.77523926 734.8664502 -85.61297852 735.85790039 -85.44580078 736.87939453 C-85.28708496 737.82411621 -85.12836914 738.76883789 -84.96484375 739.7421875 C-84.8268335 740.5657373 -84.68882324 741.38928711 -84.54663086 742.23779297 C-83.97744001 745.11399897 -83.25899752 747.93861557 -82.53663635 750.77947998 C-81.54779375 754.87116105 -80.77121046 759.00520132 -79.96875 763.13671875 C-79.57169224 765.15680156 -79.17429789 767.17681823 -78.77661133 769.19677734 C-78.56888092 770.25419128 -78.36115051 771.31160522 -78.14712524 772.40106201 C-71.51475616 806.08367584 -64.36409338 839.65031079 -55.79248047 872.89746094 C-54.96998202 876.11751957 -54.17122484 879.34270206 -53.37890625 882.5703125 C-51.16688537 891.57527693 -48.95911376 900.53517501 -46.12109375 909.3671875 C-44.18263421 915.64860693 -42.47153979 921.99539656 -40.72265625 928.33178711 C-39.29019263 933.49398156 -37.82437338 938.63603757 -36.21484375 943.74609375 C-35.93624512 944.63611084 -35.65764648 945.52612793 -35.37060547 946.44311523 C-34.85071261 948.08808136 -34.32059063 949.72986782 -33.77783203 951.36743164 C-32.16267197 956.49282116 -31.11569107 961.62021704 -32 967 C-36.36913797 970.99464043 -42.16104559 971.34555208 -47.90234375 971.1953125 C-57.1156337 970.33746427 -62.18036887 964.69590946 -68 958 C-70.52624875 954.77616777 -72.79521816 951.44977059 -75 948 C-75.47695312 947.30261719 -75.95390625 946.60523438 -76.4453125 945.88671875 C-91.05783801 923.40898143 -97.8453497 895.07387648 -104.15795898 869.3737793 C-104.73543902 867.06000817 -105.33509597 864.75169242 -105.95336914 862.44848633 C-109.06595814 850.6515393 -111.0435073 838.73304939 -112.9375 826.6875 C-113.10952942 825.60661102 -113.28155884 824.52572205 -113.45880127 823.41207886 C-116.8333229 802.14081236 -119.48940872 780.81532102 -121.74523926 759.39907837 C-122.01050382 756.90108569 -122.28346961 754.40401487 -122.55761719 751.90698242 C-123.49697348 743.28708655 -124.29620803 734.72682459 -124.56640625 726.05664062 C-124.75018512 721.55405842 -125.25054165 717.19353664 -125.94750977 712.73999023 C-127.12472221 704.61668437 -127.69073231 696.49257424 -128.18359375 688.3046875 C-128.28429579 686.69511275 -128.38535446 685.08556028 -128.48674011 683.47602844 C-128.75599858 679.17035872 -129.01711296 674.86423347 -129.2758255 670.55791855 C-129.43871219 667.85488423 -129.60380758 665.15199271 -129.76947021 662.4491272 C-131.41149742 635.60593742 -132.76918662 608.7595948 -133.88751984 581.88993359 C-134.96896413 555.90808194 -136.38536371 529.95394097 -138 504 C-138.04962891 503.19939148 -138.09925781 502.39878296 -138.15039062 501.57391357 C-138.66911791 493.21676402 -139.21070606 484.8613456 -139.77050781 476.50683594 C-140.01244064 472.80989641 -140.23786416 469.1121855 -140.4609375 465.4140625 C-141.25740266 412.77348721 -141.25740266 412.77348721 -159 365 C-159.99 365 -160.98 365 -162 365 C-163.4014415 366.68502061 -163.4014415 366.68502061 -164.609375 368.96875 C-165.10888672 369.83773926 -165.60839844 370.70672852 -166.12304688 371.60205078 C-166.92838867 373.03653564 -166.92838867 373.03653564 -167.75 374.5 C-168.91920617 376.53018518 -170.09118198 378.55877729 -171.265625 380.5859375 C-171.87728516 381.64393555 -172.48894531 382.70193359 -173.11914062 383.79199219 C-185.23957338 404.46469291 -198.56773723 424.47073 -211.91064453 444.36962891 C-212.91398316 445.87126391 -213.9085809 447.37872953 -214.90234375 448.88671875 C-220.83874061 457.88544295 -227.04384216 466.69350995 -233.24804688 475.50878906 C-234.86145441 477.80299342 -236.47049805 480.10018072 -238.078125 482.3984375 C-244.97557616 492.24031405 -252.06188343 501.93320345 -259.21777344 511.58837891 C-260.98857231 513.98453661 -262.74971172 516.38748244 -264.5078125 518.79296875 C-272.47652216 529.68539353 -280.64465529 540.40134822 -289 551 C-290.07121094 552.36125 -290.07121094 552.36125 -291.1640625 553.75 C-295.99994746 559.84115723 -300.972057 565.82041363 -305.92431641 571.81689453 C-309.49692871 576.1505824 -313.01286251 580.51672127 -316.4375 584.96875 C-321.62041932 591.70654511 -327.00084354 598.16656126 -332.7265625 604.44921875 C-335.78467463 607.88039954 -338.66066443 611.44599376 -341.5546875 615.015625 C-348.70906338 623.74716361 -356.13805023 632.23089476 -363.765625 640.55078125 C-366.29649006 643.32499872 -368.76639391 646.14707121 -371.23046875 648.98046875 C-374.02131985 652.16561228 -376.86129103 655.30603494 -379.69921875 658.44921875 C-381.1641011 660.07327337 -382.62543831 661.70053785 -384.08203125 663.33203125 C-389.14904724 669.00069663 -394.3098136 674.57592632 -399.51245117 680.11987305 C-402.11485017 682.89604477 -404.70828731 685.67709916 -407.25926208 688.50080872 C-414.85715905 696.89488284 -422.7813595 704.92797223 -430.79296875 712.92578125 C-432.19312328 714.32661151 -433.59312951 715.72759 -434.99299622 717.12870789 C-437.90508937 720.0422634 -440.81895283 722.95403313 -443.73413086 725.86450195 C-447.45261154 729.57726488 -451.1665545 733.29452955 -454.8791914 737.01313496 C-457.76084653 739.89841725 -460.64489587 742.78129693 -463.52965736 745.66347313 C-464.89979541 747.03294897 -466.26920457 748.4031545 -467.63783836 749.77413368 C-480.51806307 762.67160386 -480.51806307 762.67160386 -486.51496887 767.7351532 C-488.63281942 769.53899181 -490.56399936 771.50443011 -492.5 773.5 C-495.74256259 776.78103368 -499.07047022 779.85459996 -502.5703125 782.85546875 C-505.94544268 785.83448236 -509.21765093 788.91946264 -512.5 792 C-516.97931691 796.19980404 -521.46855631 800.36695359 -526.125 804.37109375 C-528.38751181 806.33665089 -530.59690683 808.35673309 -532.8125 810.375 C-536.27530082 813.50422827 -539.80679003 816.50500349 -543.4375 819.4375 C-547.24087503 822.51336588 -550.90082652 825.68753166 -554.5 829 C-558.91640144 833.05983645 -563.46163522 836.89323821 -568.12890625 840.66015625 C-571.22987017 843.18733637 -574.27165455 845.77626005 -577.3125 848.375 C-582.27317245 852.60119326 -587.34053528 856.66234629 -592.48535156 860.66137695 C-597.24934061 864.37710508 -601.9123522 868.20563408 -606.5625 872.0625 C-612.47517534 876.9586771 -618.45004238 881.72953221 -624.5625 886.375 C-627.16395818 888.35235539 -629.74168372 890.35796727 -632.3125 892.375 C-639.71321451 898.17920371 -647.13228369 903.90901868 -654.82543945 909.32128906 C-659.16089129 912.37664399 -663.39909712 915.54527855 -667.625 918.75 C-676.90076564 925.76080596 -686.43766369 932.38811713 -696 939 C-697.11568359 939.7727124 -697.11568359 939.7727124 -698.25390625 940.56103516 C-705.78096793 945.77089568 -713.33761073 950.93162579 -720.96875 955.98828125 C-723.11989293 957.41590833 -725.26547956 958.84998867 -727.40625 960.29296875 C-742.92164584 970.73396199 -758.69516642 980.83115979 -775 990 C-775.76505859 990.43183594 -776.53011719 990.86367187 -777.31835938 991.30859375 C-804.01582221 1006.20046874 -832.74501538 1017.48607711 -860.9375 1029.1875 C-861.77069763 1029.53340179 -862.60389526 1029.87930359 -863.46234131 1030.23568726 C-880.17700156 1037.16171907 -897.02141902 1043.74830776 -914 1050 C-914.85819336 1050.31662598 -915.71638672 1050.63325195 -916.60058594 1050.95947266 C-942.3320594 1060.42129021 -968.20359078 1069.46251925 -994.79882812 1076.18945312 C-998.09361173 1077.02370279 -1001.38271628 1077.87824035 -1004.671875 1078.734375 C-1011.76359449 1080.56480667 -1018.87689563 1082.29631992 -1026 1084 C-1027.20817383 1084.29406738 -1028.41634766 1084.58813477 -1029.66113281 1084.89111328 C-1047.80889095 1089.2506705 -1065.97391381 1092.12167944 -1084.5 1094.375 C-1085.54344574 1094.50246613 -1086.58689148 1094.62993225 -1087.66195679 1094.76126099 C-1131.35722777 1100.03514743 -1176.42665936 1100.57700754 -1220 1094 C-1220.89489136 1093.86660217 -1221.78978271 1093.73320435 -1222.71179199 1093.59576416 C-1279.32216052 1085.11114851 -1336.01407353 1071.18165112 -1389.6184082 1050.88378906 C-1392.59813751 1049.77803611 -1395.5931207 1048.71898578 -1398.58984375 1047.66015625 C-1399.78673828 1047.23669922 -1400.98363281 1046.81324219 -1402.21679688 1046.37695312 C-1404.69256695 1045.50231099 -1407.16912848 1044.6299059 -1409.64648438 1043.75976562 C-1415.50460973 1041.68310903 -1421.23627645 1039.5224205 -1426.88305664 1036.92700195 C-1430.75157738 1035.23299051 -1434.75342157 1033.91881546 -1438.75 1032.5625 C-1448.48683591 1029.20379425 -1458.10201605 1025.6557969 -1467.59765625 1021.65625 C-1473.8409403 1019.04856318 -1480.13238783 1016.57851611 -1486.4375 1014.125 C-1497.53160515 1009.77916382 -1508.61010628 1005.39442114 -1519.66506958 1000.94989014 C-1521.34546865 1000.27545352 -1523.02684692 999.60345149 -1524.709198 998.93389893 C-1527.07314981 997.9924367 -1529.43342485 997.04228958 -1531.79296875 996.08984375 C-1532.86596222 995.66551811 -1532.86596222 995.66551811 -1533.96063232 995.23262024 C-1538.88582024 993.22835951 -1538.88582024 993.22835951 -1540 991 C-1539.16041748 990.92483154 -1538.32083496 990.84966309 -1537.45581055 990.7722168 C-1511.8172942 988.45196527 -1487.13852443 984.68405203 -1462 979 C-1460.98808594 978.77473633 -1459.97617188 978.54947266 -1458.93359375 978.31738281 C-1441.78162373 974.4564582 -1425.25369417 968.95861816 -1408.65039062 963.24511719 C-1405.36463904 962.12437527 -1402.06821715 961.04631051 -1398.765625 959.9765625 C-1393.75869812 958.31362422 -1388.91656315 956.37068955 -1384.06396484 954.30371094 C-1380.93709214 952.97323283 -1377.79432817 951.68924145 -1374.64453125 950.4140625 C-1332.78016549 933.37163233 -1291.34920331 914.24849843 -1252.34472656 891.35595703 C-1248.35829371 889.05060009 -1244.29920236 886.87999494 -1240.25 884.6875 C-1227.63307978 877.80381003 -1215.31833271 870.39999767 -1203 863 C-1201.95247559 862.3709375 -1200.90495117 861.741875 -1199.82568359 861.09375 C-1188.79706647 854.45724669 -1177.86497424 847.7028809 -1167.09375 840.65625 C-1164.42572014 838.91468971 -1161.74108202 837.20699739 -1159.03125 835.53125 C-1147.59905208 828.45061989 -1136.44862682 820.97173827 -1125.3125 813.4375 C-1124.13572693 812.64143341 -1124.13572693 812.64143341 -1122.93518066 811.82928467 C-1109.43477473 802.69018484 -1095.9305074 793.54671859 -1082.625 784.125 C-1081.93204834 783.63507568 -1081.23909668 783.14515137 -1080.52514648 782.64038086 C-1073.82669002 777.8946082 -1067.17024753 773.09117802 -1060.5234375 768.2734375 C-1057.55633553 766.12308618 -1054.58249496 763.98269684 -1051.6015625 761.8515625 C-1042.57934518 755.39111052 -1033.70079135 748.76814897 -1024.89404297 742.0168457 C-1019.08241542 737.56716832 -1013.22060825 733.19555535 -1007.3125 728.875 C-998.82660618 722.65957062 -990.51330981 716.24249176 -982.23828125 709.75 C-979.98855628 707.99105272 -977.73023466 706.2437954 -975.46875 704.5 C-967.23998399 698.14885577 -959.12540315 691.68829438 -951.1262207 685.05004883 C-946.1116766 680.89423587 -941.02697354 676.8416817 -935.89233398 672.83569336 C-930.52366327 668.64295052 -925.25775049 664.33082855 -920 660 C-918.20842294 658.54155659 -916.41675498 657.08322483 -914.625 655.625 C-909.98403986 651.83025482 -905.40454445 647.96805288 -900.83642578 644.08642578 C-897.41979268 641.18780161 -893.97513003 638.32859421 -890.5 635.5 C-881.65107467 628.28787011 -872.98556805 620.86875719 -864.375 613.375 C-859.16040868 608.84019755 -853.90275536 604.37401603 -848.51953125 600.0390625 C-846.89392703 598.72345723 -845.28550674 597.38619085 -843.69921875 596.0234375 C-838.5007274 591.63748345 -832.99178677 587.96016544 -827.1875 584.4375 C-826.09284424 583.75602905 -826.09284424 583.75602905 -824.97607422 583.06079102 C-819.78144949 579.99341475 -819.78144949 579.99341475 -816.21875 580.0234375 C-813.74346083 581.11291337 -812.23910125 582.29433217 -810.3125 584.1875 C-792.3576692 600.53742972 -768.51148879 602.16732449 -745.36279297 601.24707031 C-732.23695514 600.28269193 -718.74312667 596.98605064 -707 591 C-705.24042969 590.13761719 -705.24042969 590.13761719 -703.4453125 589.2578125 C-690.19321174 582.59844822 -678.80827556 574.13275834 -668 564 C-666.54870344 562.67972327 -665.09081244 561.36664195 -663.625 560.0625 C-662.71621094 559.24458984 -662.71621094 559.24458984 -661.7890625 558.41015625 C-659.9475345 556.95864619 -658.12861194 555.97053452 -656 555 C-656 554.34 -656 553.68 -656 553 C-654.7421875 551.765625 -654.7421875 551.765625 -652.875 550.25 C-643.56405193 542.33320459 -634.7700866 533.43395129 -627 524 C-626.55897949 523.47277344 -626.11795898 522.94554687 -625.66357422 522.40234375 C-613.49384042 507.83798382 -602.317399 492.8583211 -592.86889648 476.37207031 C-592.40427002 475.56866211 -591.93964355 474.76525391 -591.4609375 473.9375 C-591.05665527 473.22464844 -590.65237305 472.51179688 -590.23583984 471.77734375 C-588.26743382 468.94644769 -586.35801407 468.07071411 -583.02978516 467.41333008 C-577.8818776 466.79939568 -572.69945516 466.62131162 -567.5234375 466.38671875 C-565.23473861 466.27538175 -562.94608439 466.16312367 -560.6574707 466.05004883 C-559.46771637 465.9915274 -558.27796204 465.93300598 -557.05215454 465.87271118 C-517.2505557 463.86798142 -478.96245302 458.4890316 -441 446 C-440.04061523 445.690625 -439.08123047 445.38125 -438.09277344 445.0625 C-425.87330039 441.1214794 -413.85254182 436.93629888 -402 432 C-400.9486084 431.59031982 -400.9486084 431.59031982 -399.87597656 431.17236328 C-392.27933073 428.20808423 -384.8852553 424.82489726 -377.5 421.375 C-376.83670685 421.06531281 -376.1734137 420.75562561 -375.49002075 420.43655396 C-364.72762279 415.397179 -354.20273017 410.10362004 -344 404 C-343.16178711 403.50145508 -342.32357422 403.00291016 -341.45996094 402.48925781 C-323.91992724 392.0009425 -304.57282605 380.3114893 -290.42089844 365.328125 C-289 364 -289 364 -287 364 C-287 363.34 -287 362.68 -287 362 C-285.35546875 360.4140625 -285.35546875 360.4140625 -283.1875 358.625 C-280.93749143 356.76433718 -279.09649715 355.13127297 -277.36328125 352.7734375 C-276.91339844 352.18820312 -276.46351562 351.60296875 -276 351 C-275.34 351 -274.68 351 -274 351 C-273.76023437 350.44570313 -273.52046875 349.89140625 -273.2734375 349.3203125 C-271.71303424 346.47712373 -269.76917517 344.31061646 -267.625 341.875 C-260.9856699 334.09993102 -255.52189131 325.58610063 -250 317 C-249.4426416 316.1352002 -248.8852832 315.27040039 -248.31103516 314.37939453 C-242.45304741 305.27229977 -236.67409895 296.11887018 -231.00170898 286.89501953 C-205.1628621 244.88120186 -177.65360942 206.61596807 -132.64575195 183.96777344 C-112.24464966 173.67202587 -97.43123718 160.64407358 -87 140 C-86.67676758 139.37319336 -86.35353516 138.74638672 -86.02050781 138.10058594 C-77.97324601 122.09414181 -74.59121783 104.36900708 -70.48699951 87.05426025 C-63.46343892 57.42749262 -54.18674029 29.52894111 -27.515625 12.0703125 C-7.55539367 0 -7.55539367 0 0 0 Z " fill="#0A0A0A" transform="translate(1704,499)"/>
<path d="M0 0 C0.66 0.33 1.32 0.66 2 1 C-11.2 14.2 -24.4 27.4 -38 41 C-38 38 -38 38 -36.79418945 36.45361328 C-36.23948975 35.91462402 -35.68479004 35.37563477 -35.11328125 34.8203125 C-34.50419922 34.22089844 -33.89511719 33.62148438 -33.26757812 33.00390625 C-32.62240234 32.38386719 -31.97722656 31.76382813 -31.3125 31.125 C-30.37374023 30.20654297 -30.37374023 30.20654297 -29.41601562 29.26953125 C-28.17561925 28.05641061 -26.93254383 26.84602303 -25.68676758 25.63842773 C-23.43338218 23.44962047 -21.21643636 21.22621475 -19 19 C-17.45208474 17.45156114 -15.90387453 15.9034171 -14.35546875 14.35546875 C-13.09379883 13.09379883 -13.09379883 13.09379883 -11.80664062 11.80664062 C-7.87109375 7.87109375 -3.93554688 3.93554688 0 0 Z " fill="#0A0A0A" transform="translate(635,579)"/>
</svg>

